<svg width="24" height="40" viewBox="0 0 24 40" fill="none" xmlns="http://www.w3.org/2000/svg">
<path d="M0.400308 0.982518H5.50101V3.15193H4.016V19.5H1.84658V3.15193H0.400308V0.982518ZM14.2985 7.7361C14.2985 7.98576 14.2382 8.23111 14.1177 8.47215C14.0058 8.70459 13.8724 8.86385 13.7174 8.94994C13.8724 9.03603 14.0058 9.1996 14.1177 9.44064C14.2382 9.67308 14.2985 9.91413 14.2985 10.1638V17.563C14.2985 18.2173 14.0704 18.7037 13.6141 19.0222C13.1664 19.3407 12.538 19.5 11.7288 19.5H9.19779V0.982518H11.7288C12.538 0.982518 13.1664 1.14178 13.6141 1.46031C14.0704 1.77883 14.2985 2.26523 14.2985 2.91949V7.7361ZM11.3672 3.15193V7.86524H11.7288C11.8493 7.86524 11.944 7.8308 12.0129 7.76193C12.0903 7.68445 12.1291 7.58976 12.1291 7.47784V3.52641C12.1291 3.42311 12.0903 3.33702 12.0129 3.26815C11.9354 3.19067 11.8407 3.15193 11.7288 3.15193H11.3672ZM12.1291 10.435C12.1291 10.3144 12.0903 10.2197 12.0129 10.1509C11.9354 10.0734 11.8407 10.0346 11.7288 10.0346H11.3672V17.3306H11.7288C11.8407 17.3306 11.9354 17.2918 12.0129 17.2144C12.0903 17.1369 12.1291 17.0422 12.1291 16.9303V10.435ZM23.096 8.57546H20.9266V3.34563C20.9266 3.24232 20.8878 3.15193 20.8103 3.07445C20.7329 2.98836 20.6382 2.94532 20.5263 2.94532C20.4229 2.94532 20.3369 2.98836 20.268 3.07445C20.1991 3.15193 20.1647 3.24232 20.1647 3.34563V17.1498C20.1647 17.2531 20.1991 17.3435 20.268 17.421C20.3369 17.4985 20.4229 17.5372 20.5263 17.5372C20.6382 17.5372 20.7329 17.4985 20.8103 17.421C20.8878 17.3435 20.9266 17.2531 20.9266 17.1498V12.0749H20.5263V9.90552H23.096V17.6534C23.096 18.3077 22.8635 18.8113 22.3987 19.1643C21.9338 19.5086 21.3097 19.6808 20.5263 19.6808C19.7515 19.6808 19.1359 19.5086 18.6797 19.1643C18.2234 18.8113 17.9953 18.3077 17.9953 17.6534V2.84201C17.9953 2.18775 18.2234 1.68413 18.6797 1.33117C19.1445 0.978213 19.7601 0.801733 20.5263 0.801733C21.301 0.801733 21.9209 0.978213 22.3858 1.33117C22.8592 1.68413 23.096 2.18775 23.096 2.84201V8.57546Z" fill="white"/>
<path d="M6.00101 28.5755H3.8316V23.3456C3.8316 23.2423 3.79286 23.1519 3.71538 23.0745C3.6379 22.9884 3.5432 22.9453 3.43129 22.9453C3.32798 22.9453 3.2419 22.9884 3.17303 23.0745C3.10416 23.1519 3.06972 23.2423 3.06972 23.3456V28.6529L5.26496 30.2413C5.75566 30.5598 6.00101 31.0031 6.00101 31.5713V37.6534C6.00101 38.3077 5.76857 38.8113 5.3037 39.1643C4.83882 39.5086 4.21469 39.6808 3.43129 39.6808C2.6565 39.6808 2.04097 39.5086 1.58471 39.1643C1.12844 38.8113 0.900308 38.3077 0.900308 37.6534V31.9071H3.06972V37.1498C3.06972 37.2531 3.10416 37.3435 3.17303 37.421C3.2419 37.4985 3.32798 37.5372 3.43129 37.5372C3.5432 37.5372 3.6379 37.4985 3.71538 37.421C3.79286 37.3435 3.8316 37.2531 3.8316 37.1498V31.8296L1.61053 30.2413C1.13705 29.9227 0.900308 29.4837 0.900308 28.9241V22.842C0.900308 22.1877 1.12844 21.6841 1.58471 21.3312C2.04958 20.9782 2.66511 20.8017 3.43129 20.8017C4.20608 20.8017 4.82591 20.9782 5.29079 21.3312C5.76427 21.6841 6.00101 22.1877 6.00101 22.842V28.5755ZM11.8109 20.9825V23.1519H10.016V29.1566H11.8109V31.326H10.016V37.3306H11.8109V39.5H7.84656V20.9825H11.8109ZM16.5877 20.9825H18.7572V34.0377C18.7572 35.0191 18.2621 35.6562 17.2721 35.9489V39.5H15.1027V35.9101C14.1385 35.626 13.6565 35.0019 13.6565 34.0377V20.9825H15.8259V33.5341C15.8259 33.6374 15.8603 33.7278 15.9292 33.8053C15.998 33.8742 16.0841 33.9086 16.1874 33.9086C16.2993 33.9086 16.394 33.8742 16.4715 33.8053C16.549 33.7278 16.5877 33.6374 16.5877 33.5341V20.9825ZM22.7721 20.9825V39.5H20.6027V20.9825H22.7721Z" fill="white"/>
</svg>
